<mxfile host="app.diagrams.net" agent="Mozilla/5.0 (Windows NT 10.0; Win64; x64) AppleWebKit/537.36 (KHTML, like Gecko) Chrome/133.0.0.0 Safari/537.36" version="26.0.16" pages="2">
  <diagram name="SAP-&gt; SMAX" id="AL2OUmJOLECwNEhBRWxB">
    <mxGraphModel dx="1909" dy="976" grid="1" gridSize="10" guides="1" tooltips="1" connect="1" arrows="1" fold="1" page="1" pageScale="1" pageWidth="827" pageHeight="1169" math="0" shadow="0">
      <root>
        <mxCell id="0" />
        <mxCell id="1" parent="0" />
        <mxCell id="DEZ073So4GfOy67uZFNO-1" value="SAP" style="shape=umlLifeline;perimeter=lifelinePerimeter;whiteSpace=wrap;html=1;container=1;collapsible=0;recursiveResize=0;outlineConnect=0;rounded=1;shadow=0;comic=0;labelBackgroundColor=none;strokeWidth=1;fontFamily=Verdana;fontSize=12;align=center;" vertex="1" parent="1">
          <mxGeometry x="240" y="80" width="100" height="580" as="geometry" />
        </mxCell>
        <mxCell id="DEZ073So4GfOy67uZFNO-2" value="" style="html=1;points=[];perimeter=orthogonalPerimeter;rounded=0;shadow=0;comic=0;labelBackgroundColor=none;strokeWidth=1;fontFamily=Verdana;fontSize=12;align=center;" vertex="1" parent="DEZ073So4GfOy67uZFNO-1">
          <mxGeometry x="45" y="100" width="10" height="320" as="geometry" />
        </mxCell>
        <mxCell id="DEZ073So4GfOy67uZFNO-13" value="" style="html=1;verticalAlign=bottom;endArrow=block;entryX=0;entryY=0;labelBackgroundColor=none;fontFamily=Verdana;fontSize=12;edgeStyle=elbowEdgeStyle;elbow=vertical;" edge="1" parent="DEZ073So4GfOy67uZFNO-1">
          <mxGeometry x="0.2667" y="10" relative="1" as="geometry">
            <mxPoint x="55" y="127.14814814814815" as="sourcePoint" />
            <mxPoint as="offset" />
            <mxPoint x="262" y="127.00000000000057" as="targetPoint" />
          </mxGeometry>
        </mxCell>
        <mxCell id="DEZ073So4GfOy67uZFNO-4" value="API Bus/&lt;div&gt;Interoperabilidad Layer&lt;/div&gt;" style="shape=umlLifeline;perimeter=lifelinePerimeter;whiteSpace=wrap;html=1;container=1;collapsible=0;recursiveResize=0;outlineConnect=0;rounded=1;shadow=0;comic=0;labelBackgroundColor=none;strokeWidth=1;fontFamily=Verdana;fontSize=12;align=center;" vertex="1" parent="1">
          <mxGeometry x="414" y="80" width="186" height="580" as="geometry" />
        </mxCell>
        <mxCell id="DEZ073So4GfOy67uZFNO-5" value="" style="html=1;points=[];perimeter=orthogonalPerimeter;rounded=0;shadow=0;comic=0;labelBackgroundColor=none;strokeWidth=1;fontFamily=Verdana;fontSize=12;align=center;" vertex="1" parent="DEZ073So4GfOy67uZFNO-4">
          <mxGeometry x="88" y="110" width="10" height="260" as="geometry" />
        </mxCell>
        <mxCell id="DEZ073So4GfOy67uZFNO-47" value="getToken" style="text;html=1;align=center;verticalAlign=middle;resizable=0;points=[];autosize=1;strokeColor=none;fillColor=none;" vertex="1" parent="DEZ073So4GfOy67uZFNO-4">
          <mxGeometry x="150" y="130" width="70" height="30" as="geometry" />
        </mxCell>
        <mxCell id="DEZ073So4GfOy67uZFNO-6" value="SMAX" style="shape=umlLifeline;perimeter=lifelinePerimeter;whiteSpace=wrap;html=1;container=1;collapsible=0;recursiveResize=0;outlineConnect=0;rounded=1;shadow=0;comic=0;labelBackgroundColor=none;strokeWidth=1;fontFamily=Verdana;fontSize=12;align=center;" vertex="1" parent="1">
          <mxGeometry x="660" y="80" width="100" height="580" as="geometry" />
        </mxCell>
        <mxCell id="DEZ073So4GfOy67uZFNO-10" value="" style="html=1;points=[];perimeter=orthogonalPerimeter;rounded=0;shadow=0;comic=0;labelBackgroundColor=none;strokeWidth=1;fontFamily=Verdana;fontSize=12;align=center;" vertex="1" parent="DEZ073So4GfOy67uZFNO-6">
          <mxGeometry x="45" y="150" width="10" height="60" as="geometry" />
        </mxCell>
        <mxCell id="DEZ073So4GfOy67uZFNO-50" value="" style="html=1;points=[];perimeter=orthogonalPerimeter;rounded=0;shadow=0;comic=0;labelBackgroundColor=none;strokeWidth=1;fontFamily=Verdana;fontSize=12;align=center;" vertex="1" parent="DEZ073So4GfOy67uZFNO-6">
          <mxGeometry x="45" y="250" width="10" height="90" as="geometry" />
        </mxCell>
        <mxCell id="DEZ073So4GfOy67uZFNO-8" value="Usuario" style="shape=umlLifeline;perimeter=lifelinePerimeter;whiteSpace=wrap;html=1;container=1;collapsible=0;recursiveResize=0;outlineConnect=0;rounded=1;shadow=0;comic=0;labelBackgroundColor=none;strokeWidth=1;fontFamily=Verdana;fontSize=12;align=center;" vertex="1" parent="1">
          <mxGeometry x="100" y="80" width="100" height="580" as="geometry" />
        </mxCell>
        <mxCell id="DEZ073So4GfOy67uZFNO-9" value="" style="html=1;points=[];perimeter=orthogonalPerimeter;rounded=0;shadow=0;comic=0;labelBackgroundColor=none;strokeWidth=1;fontFamily=Verdana;fontSize=12;align=center;" vertex="1" parent="DEZ073So4GfOy67uZFNO-8">
          <mxGeometry x="45" y="100" width="10" height="340" as="geometry" />
        </mxCell>
        <mxCell id="DEZ073So4GfOy67uZFNO-12" value="Inicia Solicitud" style="html=1;verticalAlign=bottom;endArrow=block;labelBackgroundColor=none;fontFamily=Verdana;fontSize=12;edgeStyle=elbowEdgeStyle;elbow=vertical;entryX=-0.226;entryY=0.041;entryDx=0;entryDy=0;entryPerimeter=0;" edge="1" parent="1" target="DEZ073So4GfOy67uZFNO-2">
          <mxGeometry relative="1" as="geometry">
            <mxPoint x="155" y="194" as="sourcePoint" />
            <mxPoint x="280" y="194" as="targetPoint" />
            <Array as="points">
              <mxPoint x="200" y="194" />
            </Array>
          </mxGeometry>
        </mxCell>
        <mxCell id="DEZ073So4GfOy67uZFNO-43" value="&lt;div&gt;&lt;br&gt;&lt;/div&gt;" style="shape=umlActor;verticalLabelPosition=bottom;verticalAlign=top;html=1;outlineConnect=0;" vertex="1" parent="1">
          <mxGeometry x="130" width="30" height="60" as="geometry" />
        </mxCell>
        <mxCell id="DEZ073So4GfOy67uZFNO-48" style="edgeStyle=orthogonalEdgeStyle;rounded=0;orthogonalLoop=1;jettySize=auto;html=1;entryX=1.16;entryY=0.678;entryDx=0;entryDy=0;entryPerimeter=0;dashed=1;" edge="1" parent="1">
          <mxGeometry relative="1" as="geometry">
            <mxPoint x="700" y="281" as="sourcePoint" />
            <mxPoint x="511.5999999999999" y="280.58000000000004" as="targetPoint" />
            <Array as="points">
              <mxPoint x="620" y="281" />
            </Array>
          </mxGeometry>
        </mxCell>
        <mxCell id="DEZ073So4GfOy67uZFNO-55" style="edgeStyle=orthogonalEdgeStyle;rounded=0;orthogonalLoop=1;jettySize=auto;html=1;" edge="1" parent="1" source="DEZ073So4GfOy67uZFNO-5">
          <mxGeometry relative="1" as="geometry">
            <mxPoint x="705" y="340" as="targetPoint" />
            <Array as="points">
              <mxPoint x="550" y="340" />
              <mxPoint x="550" y="340" />
            </Array>
          </mxGeometry>
        </mxCell>
        <mxCell id="DEZ073So4GfOy67uZFNO-46" value="" style="endArrow=classic;html=1;rounded=0;entryX=-0.28;entryY=0.157;entryDx=0;entryDy=0;entryPerimeter=0;" edge="1" parent="1" target="DEZ073So4GfOy67uZFNO-10">
          <mxGeometry width="50" height="50" relative="1" as="geometry">
            <mxPoint x="513" y="239" as="sourcePoint" />
            <mxPoint x="634" y="240" as="targetPoint" />
          </mxGeometry>
        </mxCell>
        <mxCell id="DEZ073So4GfOy67uZFNO-49" value="genera y retorna Token" style="text;html=1;align=center;verticalAlign=middle;resizable=0;points=[];autosize=1;strokeColor=none;fillColor=none;dashed=1;" vertex="1" parent="1">
          <mxGeometry x="530" y="251" width="150" height="30" as="geometry" />
        </mxCell>
        <mxCell id="DEZ073So4GfOy67uZFNO-54" value="CreateRequest" style="text;whiteSpace=wrap;" vertex="1" parent="1">
          <mxGeometry x="564" y="310" width="110" height="40" as="geometry" />
        </mxCell>
        <mxCell id="DEZ073So4GfOy67uZFNO-57" style="edgeStyle=orthogonalEdgeStyle;rounded=0;orthogonalLoop=1;jettySize=auto;html=1;dashed=1;" edge="1" parent="1" source="DEZ073So4GfOy67uZFNO-50">
          <mxGeometry relative="1" as="geometry">
            <mxPoint x="513" y="390" as="targetPoint" />
            <Array as="points">
              <mxPoint x="650" y="390" />
              <mxPoint x="650" y="390" />
            </Array>
          </mxGeometry>
        </mxCell>
        <mxCell id="DEZ073So4GfOy67uZFNO-58" value="Solicitud Creada" style="text;html=1;align=center;verticalAlign=middle;resizable=0;points=[];autosize=1;strokeColor=none;fillColor=none;" vertex="1" parent="1">
          <mxGeometry x="550" y="368" width="110" height="30" as="geometry" />
        </mxCell>
        <mxCell id="DEZ073So4GfOy67uZFNO-44" value="Enviar Solicitud aÂ API SMAX" style="text;whiteSpace=wrap;" vertex="1" parent="1">
          <mxGeometry x="319" y="181" width="190" height="40" as="geometry" />
        </mxCell>
        <mxCell id="DEZ073So4GfOy67uZFNO-59" style="edgeStyle=orthogonalEdgeStyle;rounded=0;orthogonalLoop=1;jettySize=auto;html=1;dashed=1;entryX=0.02;entryY=0.994;entryDx=0;entryDy=0;entryPerimeter=0;" edge="1" parent="1" source="DEZ073So4GfOy67uZFNO-5" target="DEZ073So4GfOy67uZFNO-60">
          <mxGeometry relative="1" as="geometry">
            <mxPoint x="300" y="440" as="targetPoint" />
            <Array as="points">
              <mxPoint x="318" y="442" />
            </Array>
          </mxGeometry>
        </mxCell>
        <mxCell id="DEZ073So4GfOy67uZFNO-60" value="Passthrough SMAX Solicitud Creada" style="text;html=1;align=center;verticalAlign=middle;resizable=0;points=[];autosize=1;strokeColor=none;fillColor=none;" vertex="1" parent="1">
          <mxGeometry x="291" y="412" width="220" height="30" as="geometry" />
        </mxCell>
        <mxCell id="DEZ073So4GfOy67uZFNO-61" style="edgeStyle=orthogonalEdgeStyle;rounded=0;orthogonalLoop=1;jettySize=auto;html=1;dashed=1;" edge="1" parent="1">
          <mxGeometry relative="1" as="geometry">
            <mxPoint x="285" y="476.9999999999998" as="sourcePoint" />
            <mxPoint x="160" y="477" as="targetPoint" />
            <Array as="points">
              <mxPoint x="220" y="477" />
              <mxPoint x="220" y="477" />
            </Array>
          </mxGeometry>
        </mxCell>
        <mxCell id="DEZ073So4GfOy67uZFNO-62" value="Confirma Solicitud Creada" style="text;html=1;align=center;verticalAlign=middle;resizable=0;points=[];autosize=1;strokeColor=none;fillColor=none;" vertex="1" parent="1">
          <mxGeometry x="150" y="447.5" width="160" height="30" as="geometry" />
        </mxCell>
      </root>
    </mxGraphModel>
  </diagram>
  <diagram id="xrsNiGHcF0rkcWQAtluF" name="Page-2">
    <mxGraphModel dx="1912" dy="1003" grid="1" gridSize="10" guides="1" tooltips="1" connect="1" arrows="1" fold="1" page="1" pageScale="1" pageWidth="827" pageHeight="1169" math="0" shadow="0">
      <root>
        <mxCell id="0" />
        <mxCell id="1" parent="0" />
        <mxCell id="Af1pe31WwN8G2V_g1Wxq-34" value="" style="endArrow=classic;html=1;rounded=0;entryX=0.1;entryY=0.035;entryDx=0;entryDy=0;entryPerimeter=0;" edge="1" parent="1" source="Af1pe31WwN8G2V_g1Wxq-10" target="Af1pe31WwN8G2V_g1Wxq-2">
          <mxGeometry width="50" height="50" relative="1" as="geometry">
            <mxPoint x="200" y="250" as="sourcePoint" />
            <mxPoint x="250" y="200" as="targetPoint" />
          </mxGeometry>
        </mxCell>
        <mxCell id="Af1pe31WwN8G2V_g1Wxq-1" value="SMAX" style="shape=umlLifeline;perimeter=lifelinePerimeter;whiteSpace=wrap;html=1;container=1;collapsible=0;recursiveResize=0;outlineConnect=0;rounded=1;shadow=0;comic=0;labelBackgroundColor=none;strokeWidth=1;fontFamily=Verdana;fontSize=12;align=center;" vertex="1" parent="1">
          <mxGeometry x="280" y="80" width="100" height="580" as="geometry" />
        </mxCell>
        <mxCell id="Af1pe31WwN8G2V_g1Wxq-2" value="" style="html=1;points=[];perimeter=orthogonalPerimeter;rounded=0;shadow=0;comic=0;labelBackgroundColor=none;strokeWidth=1;fontFamily=Verdana;fontSize=12;align=center;" vertex="1" parent="Af1pe31WwN8G2V_g1Wxq-1">
          <mxGeometry x="45" y="110" width="10" height="310" as="geometry" />
        </mxCell>
        <mxCell id="Af1pe31WwN8G2V_g1Wxq-4" value="API SAP/&lt;div&gt;Interoperabilidad Layer&lt;/div&gt;" style="shape=umlLifeline;perimeter=lifelinePerimeter;whiteSpace=wrap;html=1;container=1;collapsible=0;recursiveResize=0;outlineConnect=0;rounded=1;shadow=0;comic=0;labelBackgroundColor=none;strokeWidth=1;fontFamily=Verdana;fontSize=12;align=center;" vertex="1" parent="1">
          <mxGeometry x="454" y="80" width="186" height="580" as="geometry" />
        </mxCell>
        <mxCell id="Af1pe31WwN8G2V_g1Wxq-5" value="" style="html=1;points=[];perimeter=orthogonalPerimeter;rounded=0;shadow=0;comic=0;labelBackgroundColor=none;strokeWidth=1;fontFamily=Verdana;fontSize=12;align=center;" vertex="1" parent="Af1pe31WwN8G2V_g1Wxq-4">
          <mxGeometry x="88" y="190" width="10" height="170" as="geometry" />
        </mxCell>
        <mxCell id="Af1pe31WwN8G2V_g1Wxq-27" value="&lt;div style=&quot;text-align: left;&quot;&gt;&lt;span style=&quot;font-family: Verdana; background-color: transparent; color: light-dark(rgb(0, 0, 0), rgb(255, 255, 255));&quot;&gt;Procesa Solicitud&amp;nbsp;&lt;/span&gt;&lt;/div&gt;&lt;div style=&quot;font-family: Verdana; text-align: left;&quot;&gt;(RevisiÃ³n, AsignaciÃ³n,&lt;/div&gt;&lt;div style=&quot;font-family: Verdana; text-align: left;&quot;&gt;&amp;nbsp;Cierre, etc)&lt;/div&gt;" style="text;html=1;align=center;verticalAlign=middle;resizable=0;points=[];autosize=1;strokeColor=none;fillColor=none;" vertex="1" parent="Af1pe31WwN8G2V_g1Wxq-4">
          <mxGeometry x="-74" y="120" width="160" height="60" as="geometry" />
        </mxCell>
        <mxCell id="Af1pe31WwN8G2V_g1Wxq-7" value="SAP" style="shape=umlLifeline;perimeter=lifelinePerimeter;whiteSpace=wrap;html=1;container=1;collapsible=0;recursiveResize=0;outlineConnect=0;rounded=1;shadow=0;comic=0;labelBackgroundColor=none;strokeWidth=1;fontFamily=Verdana;fontSize=12;align=center;" vertex="1" parent="1">
          <mxGeometry x="680" y="80" width="100" height="580" as="geometry" />
        </mxCell>
        <mxCell id="Af1pe31WwN8G2V_g1Wxq-8" value="" style="html=1;points=[];perimeter=orthogonalPerimeter;rounded=0;shadow=0;comic=0;labelBackgroundColor=none;strokeWidth=1;fontFamily=Verdana;fontSize=12;align=center;" vertex="1" parent="Af1pe31WwN8G2V_g1Wxq-7">
          <mxGeometry x="45" y="217.5" width="10" height="115" as="geometry" />
        </mxCell>
        <mxCell id="Af1pe31WwN8G2V_g1Wxq-10" value="Usuario SMAX" style="shape=umlLifeline;perimeter=lifelinePerimeter;whiteSpace=wrap;html=1;container=1;collapsible=0;recursiveResize=0;outlineConnect=0;rounded=1;shadow=0;comic=0;labelBackgroundColor=none;strokeWidth=1;fontFamily=Verdana;fontSize=12;align=center;" vertex="1" parent="1">
          <mxGeometry x="100" y="80" width="100" height="580" as="geometry" />
        </mxCell>
        <mxCell id="Af1pe31WwN8G2V_g1Wxq-11" value="" style="html=1;points=[];perimeter=orthogonalPerimeter;rounded=0;shadow=0;comic=0;labelBackgroundColor=none;strokeWidth=1;fontFamily=Verdana;fontSize=12;align=center;" vertex="1" parent="Af1pe31WwN8G2V_g1Wxq-10">
          <mxGeometry x="45" y="100" width="10" height="340" as="geometry" />
        </mxCell>
        <mxCell id="Af1pe31WwN8G2V_g1Wxq-13" value="&lt;div&gt;&lt;br&gt;&lt;/div&gt;" style="shape=umlActor;verticalLabelPosition=bottom;verticalAlign=top;html=1;outlineConnect=0;" vertex="1" parent="1">
          <mxGeometry x="130" width="30" height="60" as="geometry" />
        </mxCell>
        <mxCell id="Af1pe31WwN8G2V_g1Wxq-30" value="" style="endArrow=classic;html=1;rounded=0;exitX=1.014;exitY=0.529;exitDx=0;exitDy=0;exitPerimeter=0;entryX=0.955;entryY=1.017;entryDx=0;entryDy=0;entryPerimeter=0;" edge="1" parent="1" target="Af1pe31WwN8G2V_g1Wxq-36">
          <mxGeometry width="50" height="50" relative="1" as="geometry">
            <mxPoint x="335.1400000000001" y="300" as="sourcePoint" />
            <mxPoint x="546.5" y="300" as="targetPoint" />
          </mxGeometry>
        </mxCell>
        <mxCell id="Af1pe31WwN8G2V_g1Wxq-33" value="" style="endArrow=classic;html=1;rounded=0;" edge="1" parent="1">
          <mxGeometry width="50" height="50" relative="1" as="geometry">
            <mxPoint x="341" y="200" as="sourcePoint" />
            <mxPoint x="334.5" y="250" as="targetPoint" />
            <Array as="points">
              <mxPoint x="385" y="200" />
              <mxPoint x="385" y="220" />
              <mxPoint x="385" y="250" />
            </Array>
          </mxGeometry>
        </mxCell>
        <mxCell id="Af1pe31WwN8G2V_g1Wxq-35" value="Procesar Solicitud" style="text;html=1;align=center;verticalAlign=middle;resizable=0;points=[];autosize=1;strokeColor=none;fillColor=none;" vertex="1" parent="1">
          <mxGeometry x="170" y="170" width="120" height="30" as="geometry" />
        </mxCell>
        <mxCell id="Af1pe31WwN8G2V_g1Wxq-36" value="Envia ActualizaciÃ³n orden a API SAP" style="text;html=1;align=center;verticalAlign=middle;resizable=0;points=[];autosize=1;strokeColor=none;fillColor=none;" vertex="1" parent="1">
          <mxGeometry x="330" y="270" width="220" height="30" as="geometry" />
        </mxCell>
        <mxCell id="Af1pe31WwN8G2V_g1Wxq-38" value="Actualiza Orden en SAP" style="text;html=1;align=center;verticalAlign=middle;resizable=0;points=[];autosize=1;strokeColor=none;fillColor=none;" vertex="1" parent="1">
          <mxGeometry x="568" y="292" width="150" height="30" as="geometry" />
        </mxCell>
        <mxCell id="Af1pe31WwN8G2V_g1Wxq-39" value="" style="endArrow=classic;html=1;rounded=0;dashed=1;exitX=-0.143;exitY=0.653;exitDx=0;exitDy=0;exitPerimeter=0;entryX=1.111;entryY=0.589;entryDx=0;entryDy=0;entryPerimeter=0;" edge="1" parent="1" source="Af1pe31WwN8G2V_g1Wxq-8" target="Af1pe31WwN8G2V_g1Wxq-5">
          <mxGeometry width="50" height="50" relative="1" as="geometry">
            <mxPoint x="440" y="390" as="sourcePoint" />
            <mxPoint x="560" y="370" as="targetPoint" />
          </mxGeometry>
        </mxCell>
        <mxCell id="Af1pe31WwN8G2V_g1Wxq-42" value="Respuesta SAP" style="text;html=1;align=center;verticalAlign=middle;resizable=0;points=[];autosize=1;strokeColor=none;fillColor=none;" vertex="1" parent="1">
          <mxGeometry x="590" y="338" width="110" height="30" as="geometry" />
        </mxCell>
        <mxCell id="Af1pe31WwN8G2V_g1Wxq-43" value="" style="endArrow=classic;html=1;rounded=0;dashed=1;" edge="1" parent="1">
          <mxGeometry width="50" height="50" relative="1" as="geometry">
            <mxPoint x="550" y="400" as="sourcePoint" />
            <mxPoint x="332.82352941176487" y="400" as="targetPoint" />
          </mxGeometry>
        </mxCell>
        <mxCell id="Af1pe31WwN8G2V_g1Wxq-44" value="" style="endArrow=classic;html=1;rounded=0;dashed=1;exitX=0.974;exitY=0.98;exitDx=0;exitDy=0;exitPerimeter=0;" edge="1" parent="1" source="Af1pe31WwN8G2V_g1Wxq-46">
          <mxGeometry width="50" height="50" relative="1" as="geometry">
            <mxPoint x="332" y="442" as="sourcePoint" />
            <mxPoint x="155.00352941176487" y="441" as="targetPoint" />
          </mxGeometry>
        </mxCell>
        <mxCell id="Af1pe31WwN8G2V_g1Wxq-45" value="&lt;span style=&quot;color: rgb(0, 0, 0); font-family: Helvetica; font-size: 12px; font-style: normal; font-variant-ligatures: normal; font-variant-caps: normal; font-weight: 400; letter-spacing: normal; orphans: 2; text-align: center; text-indent: 0px; text-transform: none; widows: 2; word-spacing: 0px; -webkit-text-stroke-width: 0px; white-space: nowrap; background-color: rgb(251, 251, 251); text-decoration-thickness: initial; text-decoration-style: initial; text-decoration-color: initial; float: none; display: inline !important;&quot;&gt;Respuesta ActualizaciÃ³n SAP&lt;/span&gt;" style="text;whiteSpace=wrap;html=1;" vertex="1" parent="1">
          <mxGeometry x="360" y="370" width="120" height="40" as="geometry" />
        </mxCell>
        <mxCell id="Af1pe31WwN8G2V_g1Wxq-46" value="Confirma Solicitud Procesada" style="text;html=1;align=center;verticalAlign=middle;resizable=0;points=[];autosize=1;strokeColor=none;fillColor=none;" vertex="1" parent="1">
          <mxGeometry x="149" y="412" width="180" height="30" as="geometry" />
        </mxCell>
        <mxCell id="Af1pe31WwN8G2V_g1Wxq-37" value="" style="endArrow=classic;html=1;rounded=0;entryX=0.105;entryY=0.192;entryDx=0;entryDy=0;entryPerimeter=0;exitX=1.103;exitY=0.28;exitDx=0;exitDy=0;exitPerimeter=0;" edge="1" parent="1" source="Af1pe31WwN8G2V_g1Wxq-5" target="Af1pe31WwN8G2V_g1Wxq-8">
          <mxGeometry width="50" height="50" relative="1" as="geometry">
            <mxPoint x="550" y="318" as="sourcePoint" />
            <mxPoint x="746.1399999999999" y="317.99500000000006" as="targetPoint" />
          </mxGeometry>
        </mxCell>
      </root>
    </mxGraphModel>
  </diagram>
</mxfile>
